<svg xmlns="http://www.w3.org/2000/svg" xmlns:xlink="http://www.w3.org/1999/xlink" width="500" zoomAndPan="magnify" viewBox="0 0 375 374.999991" height="500" preserveAspectRatio="xMidYMid meet" version="1.0"><defs><g/><clipPath id="f6ace4721e"><path d="M 24.578125 23.863281 L 354.707031 23.863281 L 354.707031 353.992188 L 24.578125 353.992188 Z M 24.578125 23.863281 " clip-rule="nonzero"/></clipPath><clipPath id="33244a7ba1"><path d="M 189.644531 23.863281 C 98.480469 23.863281 24.578125 97.765625 24.578125 188.929688 C 24.578125 280.089844 98.480469 353.992188 189.644531 353.992188 C 280.804688 353.992188 354.707031 280.089844 354.707031 188.929688 C 354.707031 97.765625 280.804688 23.863281 189.644531 23.863281 Z M 189.644531 23.863281 " clip-rule="nonzero"/></clipPath><clipPath id="228f170b53"><path d="M 314.136719 282.6875 L 325.574219 282.6875 L 325.574219 294.125 L 314.136719 294.125 Z M 314.136719 282.6875 " clip-rule="nonzero"/></clipPath><clipPath id="02596d4416"><path d="M 319.855469 282.6875 C 316.699219 282.6875 314.136719 285.25 314.136719 288.40625 C 314.136719 291.566406 316.699219 294.125 319.855469 294.125 C 323.015625 294.125 325.574219 291.566406 325.574219 288.40625 C 325.574219 285.25 323.015625 282.6875 319.855469 282.6875 Z M 319.855469 282.6875 " clip-rule="nonzero"/></clipPath><clipPath id="017cdc0645"><path d="M 163.144531 21.003906 L 174.578125 21.003906 L 174.578125 32.441406 L 163.144531 32.441406 Z M 163.144531 21.003906 " clip-rule="nonzero"/></clipPath><clipPath id="4c91244955"><path d="M 168.859375 21.003906 C 165.703125 21.003906 163.144531 23.566406 163.144531 26.722656 C 163.144531 29.882812 165.703125 32.441406 168.859375 32.441406 C 172.019531 32.441406 174.578125 29.882812 174.578125 26.722656 C 174.578125 23.566406 172.019531 21.003906 168.859375 21.003906 Z M 168.859375 21.003906 " clip-rule="nonzero"/></clipPath><clipPath id="5fed45ae93"><path d="M 20.289062 177.492188 L 31.726562 177.492188 L 31.726562 188.929688 L 20.289062 188.929688 Z M 20.289062 177.492188 " clip-rule="nonzero"/></clipPath><clipPath id="5978c5d51c"><path d="M 26.007812 177.492188 C 22.851562 177.492188 20.289062 180.054688 20.289062 183.210938 C 20.289062 186.371094 22.851562 188.929688 26.007812 188.929688 C 29.167969 188.929688 31.726562 186.371094 31.726562 183.210938 C 31.726562 180.054688 29.167969 177.492188 26.007812 177.492188 Z M 26.007812 177.492188 " clip-rule="nonzero"/></clipPath><clipPath id="0c04516fe2"><path d="M 70.558594 67.058594 L 311.226562 67.058594 L 311.226562 307.722656 L 70.558594 307.722656 Z M 70.558594 67.058594 " clip-rule="nonzero"/></clipPath><clipPath id="7db03713ef"><path d="M 191 67.058594 C 124.480469 67.058594 70.558594 120.980469 70.558594 187.5 C 70.558594 254.015625 124.480469 307.941406 191 307.941406 C 257.519531 307.941406 311.441406 254.015625 311.441406 187.5 C 311.441406 120.980469 257.519531 67.058594 191 67.058594 Z M 191 67.058594 " clip-rule="nonzero"/></clipPath><clipPath id="a50ccc57ff"><path d="M 280.996094 109.550781 L 288.515625 109.550781 L 288.515625 117.070312 L 280.996094 117.070312 Z M 280.996094 109.550781 " clip-rule="nonzero"/></clipPath><clipPath id="ff650b8d27"><path d="M 284.757812 109.550781 C 282.679688 109.550781 280.996094 111.234375 280.996094 113.3125 C 280.996094 115.386719 282.679688 117.070312 284.757812 117.070312 C 286.832031 117.070312 288.515625 115.386719 288.515625 113.3125 C 288.515625 111.234375 286.832031 109.550781 284.757812 109.550781 Z M 284.757812 109.550781 " clip-rule="nonzero"/></clipPath><clipPath id="82cc85d331"><path d="M 105.292969 102.539062 L 271.90625 102.539062 L 271.90625 269.15625 L 105.292969 269.15625 Z M 105.292969 102.539062 " clip-rule="nonzero"/></clipPath><clipPath id="85e04274bb"><path d="M 188.746094 102.539062 C 142.65625 102.539062 105.292969 139.90625 105.292969 185.996094 C 105.292969 232.085938 142.65625 269.449219 188.746094 269.449219 C 234.835938 269.449219 272.203125 232.085938 272.203125 185.996094 C 272.203125 139.90625 234.835938 102.539062 188.746094 102.539062 Z M 188.746094 102.539062 " clip-rule="nonzero"/></clipPath><clipPath id="4d02729461"><path d="M 135.53125 117.304688 L 141.125 117.304688 L 141.125 122.898438 L 135.53125 122.898438 Z M 135.53125 117.304688 " clip-rule="nonzero"/></clipPath><clipPath id="64f8ec8d06"><path d="M 138.328125 117.304688 C 136.785156 117.304688 135.53125 118.558594 135.53125 120.101562 C 135.53125 121.644531 136.785156 122.898438 138.328125 122.898438 C 139.871094 122.898438 141.125 121.644531 141.125 120.101562 C 141.125 118.558594 139.871094 117.304688 138.328125 117.304688 Z M 138.328125 117.304688 " clip-rule="nonzero"/></clipPath><clipPath id="35824c2e28"><path d="M 235.847656 249.175781 L 241.441406 249.175781 L 241.441406 254.765625 L 235.847656 254.765625 Z M 235.847656 249.175781 " clip-rule="nonzero"/></clipPath><clipPath id="d9404adf07"><path d="M 238.644531 249.175781 C 237.101562 249.175781 235.847656 250.425781 235.847656 251.96875 C 235.847656 253.515625 237.101562 254.765625 238.644531 254.765625 C 240.1875 254.765625 241.441406 253.515625 241.441406 251.96875 C 241.441406 250.425781 240.1875 249.175781 238.644531 249.175781 Z M 238.644531 249.175781 " clip-rule="nonzero"/></clipPath><clipPath id="9672961e50"><path d="M 63.554688 143.695312 L 297.417969 143.695312 L 297.417969 236.082031 L 63.554688 236.082031 Z M 63.554688 143.695312 " clip-rule="nonzero"/></clipPath><clipPath id="1c5d4f0d87"><path d="M 142.125 193.152344 L 151.566406 193.152344 L 151.566406 202.59375 L 142.125 202.59375 Z M 142.125 193.152344 " clip-rule="nonzero"/></clipPath><clipPath id="4c6ee8e2be"><path d="M 146.84375 193.152344 C 144.238281 193.152344 142.125 195.265625 142.125 197.875 C 142.125 200.480469 144.238281 202.59375 146.84375 202.59375 C 149.453125 202.59375 151.566406 200.480469 151.566406 197.875 C 151.566406 195.265625 149.453125 193.152344 146.84375 193.152344 Z M 146.84375 193.152344 " clip-rule="nonzero"/></clipPath></defs><g clip-path="url(#f6ace4721e)"><g clip-path="url(#33244a7ba1)"><path stroke-linecap="butt" transform="matrix(0.714826, 0, 0, 0.714826, 24.579967, 23.865139)" fill="none" stroke-linejoin="miter" d="M 230.915885 -0.00259932 C 103.382575 -0.00259932 -0.00257748 103.382553 -0.00257748 230.915863 C -0.00257748 358.443708 103.382575 461.82886 230.915885 461.82886 C 358.44373 461.82886 461.828882 358.443708 461.828882 230.915863 C 461.828882 103.382553 358.44373 -0.00259932 230.915885 -0.00259932 Z M 230.915885 -0.00259932 " stroke="#000000" stroke-width="6.295243" stroke-opacity="1" stroke-miterlimit="4"/></g></g><g clip-path="url(#228f170b53)"><g clip-path="url(#02596d4416)"><path fill="#000000" d="M 314.136719 282.6875 L 325.574219 282.6875 L 325.574219 294.125 L 314.136719 294.125 Z M 314.136719 282.6875 " fill-opacity="1" fill-rule="nonzero"/></g></g><g clip-path="url(#017cdc0645)"><g clip-path="url(#4c91244955)"><path fill="#000000" d="M 163.144531 21.003906 L 174.578125 21.003906 L 174.578125 32.441406 L 163.144531 32.441406 Z M 163.144531 21.003906 " fill-opacity="1" fill-rule="nonzero"/></g></g><g clip-path="url(#5fed45ae93)"><g clip-path="url(#5978c5d51c)"><path fill="#000000" d="M 20.289062 177.492188 L 31.726562 177.492188 L 31.726562 188.929688 L 20.289062 188.929688 Z M 20.289062 177.492188 " fill-opacity="1" fill-rule="nonzero"/></g></g><g clip-path="url(#0c04516fe2)"><g clip-path="url(#7db03713ef)"><path stroke-linecap="butt" transform="matrix(0.69157, 0, 0, 0.69157, 70.558512, 67.057217)" fill="none" stroke-linejoin="miter" d="M 174.156603 0.00199048 C 77.970349 0.00199048 0.000118402 77.972221 0.000118402 174.158475 C 0.000118402 270.339081 77.970349 348.31496 174.156603 348.31496 C 270.342858 348.31496 348.313088 270.339081 348.313088 174.158475 C 348.313088 77.972221 270.342858 0.00199048 174.156603 0.00199048 Z M 174.156603 0.00199048 " stroke="#000000" stroke-width="4.337955" stroke-opacity="1" stroke-miterlimit="4"/></g></g><g clip-path="url(#a50ccc57ff)"><g clip-path="url(#ff650b8d27)"><path fill="#000000" d="M 280.996094 109.550781 L 288.515625 109.550781 L 288.515625 117.070312 L 280.996094 117.070312 Z M 280.996094 109.550781 " fill-opacity="1" fill-rule="nonzero"/></g></g><g clip-path="url(#82cc85d331)"><g clip-path="url(#85e04274bb)"><path stroke-linecap="butt" transform="matrix(0.674555, 0, 0, 0.674555, 105.291545, 102.540264)" fill="none" stroke-linejoin="miter" d="M 123.71791 -0.00178187 C 55.391627 -0.00178187 0.00211097 55.393525 0.00211097 123.719808 C 0.00211097 192.046091 55.391627 247.435607 123.71791 247.435607 C 192.044193 247.435607 247.439499 192.046091 247.439499 123.719808 C 247.439499 55.393525 192.044193 -0.00178187 123.71791 -0.00178187 Z M 123.71791 -0.00178187 " stroke="#000000" stroke-width="4.447375" stroke-opacity="1" stroke-miterlimit="4"/></g></g><g clip-path="url(#4d02729461)"><g clip-path="url(#64f8ec8d06)"><path fill="#000000" d="M 135.53125 117.304688 L 141.125 117.304688 L 141.125 122.898438 L 135.53125 122.898438 Z M 135.53125 117.304688 " fill-opacity="1" fill-rule="nonzero"/></g></g><g clip-path="url(#35824c2e28)"><g clip-path="url(#d9404adf07)"><path fill="#000000" d="M 235.847656 249.175781 L 241.441406 249.175781 L 241.441406 254.765625 L 235.847656 254.765625 Z M 235.847656 249.175781 " fill-opacity="1" fill-rule="nonzero"/></g></g><g clip-path="url(#9672961e50)"><path fill="#ffffff" d="M 63.554688 143.695312 L 297.40625 143.695312 L 297.40625 236.082031 L 63.554688 236.082031 Z M 63.554688 143.695312 " fill-opacity="1" fill-rule="nonzero"/></g><g fill="#000000" fill-opacity="1"><g transform="translate(68.507074, 208.042501)"><g><path d="M 50.515625 -48.640625 L 51.125 -48.640625 L 51.125 0 L 41.96875 0 L 41.96875 -26.046875 L 27.703125 -10.8125 L 27.078125 -10.8125 L 12.953125 -26.046875 L 12.953125 0 L 3.796875 0 L 3.796875 -48.640625 L 4.34375 -48.640625 L 27.421875 -23.15625 Z M 50.515625 -48.640625 "/></g></g></g><g fill="#000000" fill-opacity="1"><g transform="translate(123.419256, 208.042501)"><g><path d="M 27.703125 -48.234375 L 45.34375 0 L 34.9375 0 L 23.015625 -34.453125 L 11.09375 0 L 0.6875 0 L 18.328125 -48.234375 Z M 27.703125 -48.234375 "/></g></g></g><g fill="#000000" fill-opacity="1"><g transform="translate(169.443524, 208.042501)"><g><path d="M 2 -48.234375 L 37.140625 -48.234375 L 37.140625 -39.421875 L 2 -39.421875 Z M 15.015625 0 L 15.015625 -32.25 L 24.1875 -32.25 L 24.1875 0 Z M 15.015625 0 "/></g></g></g><g fill="#000000" fill-opacity="1"><g transform="translate(208.646828, 208.042501)"><g><path d="M 3.796875 -8.75 L 35.828125 -8.75 L 35.828125 0 L 3.796875 0 Z M 33.28125 -28.453125 L 33.28125 -19.703125 L 3.796875 -19.703125 L 3.796875 -28.453125 Z M 35.421875 -48.234375 L 35.421875 -39.421875 L 3.796875 -39.421875 L 3.796875 -48.234375 Z M 35.421875 -48.234375 "/></g></g></g><g fill="#000000" fill-opacity="1"><g transform="translate(247.230045, 208.042501)"><g><path d="M 29.21875 0 L 19.640625 -16.53125 L 12.953125 -16.53125 L 12.953125 0 L 3.796875 0 L 3.796875 -25.28125 L 21.4375 -25.28125 C 23.726562 -25.28125 25.539062 -25.945312 26.875 -27.28125 C 28.207031 -28.613281 28.875 -30.316406 28.875 -32.390625 C 28.875 -34.453125 28.207031 -36.140625 26.875 -37.453125 C 25.539062 -38.765625 23.726562 -39.421875 21.4375 -39.421875 L 3.796875 -39.421875 L 3.796875 -48.234375 L 21.640625 -48.234375 C 25.222656 -48.234375 28.265625 -47.519531 30.765625 -46.09375 C 33.265625 -44.675781 35.15625 -42.769531 36.4375 -40.375 C 37.726562 -37.988281 38.375 -35.328125 38.375 -32.390625 C 38.375 -29.171875 37.59375 -26.265625 36.03125 -23.671875 C 34.46875 -21.078125 32.195312 -19.160156 29.21875 -17.921875 L 39.546875 0 Z M 29.21875 0 "/></g></g></g><g clip-path="url(#1c5d4f0d87)"><g clip-path="url(#4c6ee8e2be)"><path fill="#000000" d="M 142.125 193.152344 L 151.566406 193.152344 L 151.566406 202.59375 L 142.125 202.59375 Z M 142.125 193.152344 " fill-opacity="1" fill-rule="nonzero"/></g></g></svg>